<?xml version="1.0" encoding="utf-8"?>
<!-- Generator: Adobe Illustrator 16.0.3, SVG Export Plug-In . SVG Version: 6.00 Build 0)  -->
<!DOCTYPE svg PUBLIC "-//W3C//DTD SVG 1.1//EN" "http://www.w3.org/Graphics/SVG/1.1/DTD/svg11.dtd">
<svg version="1.1" id="svg4609" xmlns:svg="http://www.w3.org/2000/svg"
	 xmlns="http://www.w3.org/2000/svg" xmlns:xlink="http://www.w3.org/1999/xlink" x="0px" y="0px" width="900px" height="325px"
	 viewBox="0 0 900 325" enable-background="new 0 0 900 325" xml:space="preserve">
<g id="layer1">
	<g id="g4707" transform="matrix(12.781409,0,0,12.781409,-3548.7551,-1401.4611)">
		<path id="path507" fill="#BDBCBC" d="M313.002,132.15l0.209-0.966h-0.53l0.243-1.089h-0.993l-0.235,1.089h-0.427l-0.209,0.966
			h0.421l-0.532,2.436h0.986l0.539-2.436H313.002"/>
		<path id="path509" fill="#BDBCBC" d="M315.975,133.14c0.025-0.152,0.039-0.221,0.049-0.305c0.135-1.096-0.302-1.751-1.169-1.751
			c-0.938,0-1.677,0.792-1.819,1.941c-0.126,1.035,0.32,1.66,1.193,1.66c0.456,0,0.861-0.16,1.163-0.465
			c0.2-0.205,0.291-0.358,0.467-0.769h-1.082c-0.073,0.244-0.205,0.35-0.423,0.35c-0.324,0-0.444-0.197-0.388-0.661H315.975z
			 M314.118,132.432c0.104-0.35,0.294-0.525,0.558-0.525c0.271,0,0.405,0.183,0.381,0.525H314.118"/>
		<path id="path511" fill="#BDBCBC" d="M317.96,131.084c-0.86,0-1.584,0.807-1.719,1.911c-0.121,0.99,0.322,1.69,1.074,1.69
			c0.229,0,0.371-0.039,0.732-0.183l0.233-1.066c-0.241,0.197-0.381,0.259-0.561,0.259c-0.343,0-0.519-0.281-0.464-0.73
			c0.064-0.519,0.374-0.891,0.746-0.891c0.211,0,0.345,0.084,0.51,0.305l0.232-1.059C318.503,131.16,318.255,131.084,317.96,131.084
			"/>
		<path id="path513" fill="#BDBCBC" d="M319.7,129.037l-1.221,5.55h0.992l0.354-1.614c0.136-0.625,0.302-0.845,0.621-0.845
			c0.246,0,0.339,0.175,0.294,0.54c-0.015,0.13-0.031,0.214-0.11,0.556l-0.299,1.363h0.992l0.381-1.736
			c0.052-0.236,0.086-0.419,0.104-0.563c0.095-0.776-0.159-1.204-0.724-1.204c-0.319,0-0.561,0.107-0.934,0.404l0.54-2.451H319.7"/>
		<path id="path515" fill="#BDBCBC" d="M322.613,131.184l-0.746,3.403h0.991l0.339-1.537c0.149-0.678,0.317-0.921,0.636-0.921
			c0.229,0,0.337,0.19,0.295,0.54c-0.015,0.123-0.034,0.221-0.076,0.419l-0.334,1.5h0.992l0.42-1.911
			c0.054-0.236,0.081-0.411,0.099-0.555c0.081-0.67-0.174-1.036-0.721-1.036c-0.368,0-0.624,0.13-1.04,0.541l0.137-0.441H322.613"/>
		<path id="path517" fill="#BDBCBC" d="M327.133,129.159c-0.336,0-0.648,0.328-0.697,0.739c-0.051,0.417,0.173,0.752,0.504,0.752
			c0.324,0,0.624-0.335,0.676-0.761C327.665,129.487,327.446,129.159,327.133,129.159z M326.242,131.184l-0.747,3.403h0.993
			l0.747-3.403H326.242"/>
		<path id="path519" fill="#BDBCBC" d="M328.246,129.037l-1.22,5.55h0.992l0.351-1.599c0.195,0.426,0.325,0.685,0.519,1.027
			l0.326,0.571h1.209l-1.03-1.85l1.363-1.553h-1.251l-1.009,1.218l0.743-3.365H328.246"/>
		<path id="path521" fill="#BDBCBC" d="M313.702,123.602c-0.86,0-1.584,0.807-1.719,1.911c-0.121,0.989,0.321,1.689,1.074,1.689
			c0.228,0,0.371-0.037,0.731-0.182l0.232-1.065c-0.24,0.197-0.38,0.259-0.56,0.259c-0.344,0-0.519-0.283-0.464-0.731
			c0.063-0.517,0.374-0.89,0.746-0.89c0.21,0,0.345,0.084,0.51,0.304l0.231-1.057C314.246,123.678,313.997,123.602,313.702,123.602"
			/>
		<path id="path523" fill="#BDBCBC" d="M316.28,123.602c-0.962,0-1.735,0.754-1.864,1.811c-0.131,1.074,0.43,1.789,1.392,1.789
			c0.938,0,1.68-0.761,1.815-1.856C317.753,124.286,317.223,123.602,316.28,123.602z M315.875,126.22
			c-0.331,0-0.512-0.281-0.46-0.716c0.064-0.518,0.389-0.913,0.755-0.913c0.331,0,0.502,0.274,0.449,0.708
			C316.553,125.832,316.241,126.22,315.875,126.22"/>
		<path id="path525" fill="#BDBCBC" d="M318.445,123.7l-0.747,3.402h0.992l0.355-1.621c0.124-0.571,0.313-0.837,0.601-0.837
			c0.205,0,0.306,0.152,0.276,0.396c-0.009,0.076-0.026,0.167-0.052,0.289l-0.392,1.774h0.992l0.355-1.621
			c0.135-0.616,0.295-0.837,0.614-0.837c0.204,0,0.31,0.167,0.276,0.443c-0.008,0.06-0.04,0.227-0.067,0.357l-0.365,1.659h0.986
			l0.399-1.789c0.094-0.426,0.119-0.571,0.136-0.722c0.074-0.601-0.209-0.99-0.726-0.99c-0.385,0-0.681,0.16-1.07,0.586
			c-0.121-0.434-0.312-0.586-0.71-0.586c-0.385,0-0.649,0.145-0.994,0.556l0.134-0.458H318.445"/>
		<path id="path527" fill="#BDBCBC" d="M323.65,123.7l-1.158,5.282h0.986l0.541-2.459c0.206,0.472,0.476,0.677,0.885,0.677
			c0.77,0,1.376-0.776,1.52-1.956c0.124-1.012-0.225-1.644-0.905-1.644c-0.349,0-0.613,0.137-1.009,0.532l0.131-0.434H323.65z
			 M324.665,126.22c-0.325,0-0.501-0.281-0.449-0.716c0.064-0.518,0.382-0.913,0.75-0.913c0.325,0,0.495,0.274,0.443,0.708
			C325.343,125.832,325.031,126.22,324.665,126.22"/>
		<path id="path529" fill="#BDBCBC" d="M329.115,123.7l-0.391,1.774c-0.109,0.495-0.27,0.685-0.583,0.685
			c-0.259,0-0.385-0.153-0.349-0.441c0.006-0.061,0.035-0.19,0.077-0.396l0.355-1.621h-0.986l-0.376,1.697
			c-0.041,0.19-0.065,0.343-0.08,0.465c-0.106,0.86,0.323,1.339,1.182,1.339c0.488,0,0.908-0.144,1.186-0.41
			c0.253-0.236,0.402-0.586,0.561-1.295l0.389-1.796H329.115"/>
		<path id="path531" fill="#BDBCBC" d="M332.135,124.668l0.209-0.967h-0.529l0.241-1.089h-0.992l-0.235,1.089h-0.428l-0.209,0.967
			h0.421l-0.533,2.435h0.986l0.539-2.435H332.135"/>
		<path id="path533" fill="#BDBCBC" d="M335.167,125.657c0.025-0.153,0.04-0.22,0.05-0.304c0.134-1.096-0.302-1.751-1.169-1.751
			c-0.939,0-1.679,0.791-1.819,1.941c-0.128,1.035,0.319,1.659,1.191,1.659c0.458,0,0.861-0.16,1.164-0.464
			c0.199-0.206,0.29-0.357,0.466-0.769h-1.083c-0.071,0.244-0.205,0.35-0.421,0.35c-0.325,0-0.445-0.197-0.388-0.662H335.167z
			 M333.312,124.949c0.103-0.35,0.293-0.525,0.558-0.525c0.27,0,0.405,0.183,0.38,0.525H333.312"/>
		<path id="path535" fill="#BDBCBC" d="M336.028,123.7l-0.747,3.402h0.992l0.315-1.446c0.158-0.693,0.35-0.936,0.759-0.936
			c0.174,0,0.289,0.046,0.433,0.153l0.25-1.158c-0.084-0.007-0.149-0.015-0.191-0.015c-0.379,0-0.604,0.114-0.953,0.465l0.135-0.465
			H336.028"/>
		<path id="path537" fill="#BDBCBC" d="M313.857,116.502l-0.747,3.403h0.992l0.355-1.621c0.124-0.571,0.313-0.837,0.601-0.837
			c0.205,0,0.306,0.153,0.276,0.396c-0.009,0.075-0.026,0.166-0.054,0.289l-0.391,1.774h0.992l0.355-1.621
			c0.135-0.617,0.295-0.837,0.614-0.837c0.204,0,0.31,0.167,0.276,0.441c-0.008,0.061-0.04,0.229-0.068,0.357l-0.366,1.66h0.986
			l0.4-1.789c0.094-0.426,0.118-0.571,0.136-0.724c0.074-0.601-0.21-0.989-0.726-0.989c-0.385,0-0.681,0.159-1.07,0.585
			c-0.121-0.434-0.314-0.585-0.71-0.585c-0.385,0-0.65,0.144-0.994,0.555l0.134-0.456H313.857"/>
		<path id="path539" fill="#BDBCBC" d="M321.065,116.502l-0.054,0.387c-0.244-0.373-0.434-0.486-0.813-0.486
			c-0.813,0-1.516,0.845-1.657,1.994c-0.12,0.982,0.242,1.606,0.922,1.606c0.373,0,0.621-0.123,0.971-0.472l-0.117,0.374h0.992
			l0.746-3.403H321.065z M320.016,119.02c-0.33,0-0.506-0.281-0.454-0.715c0.064-0.518,0.389-0.914,0.75-0.914
			c0.324,0,0.495,0.274,0.443,0.709C320.688,118.633,320.377,119.02,320.016,119.02"/>
		<path id="path541" fill="#BDBCBC" d="M324.685,116.502l-0.079,0.495c-0.223-0.435-0.456-0.594-0.841-0.594
			c-0.794,0-1.45,0.791-1.586,1.91c-0.128,1.035,0.25,1.69,0.978,1.69c0.313,0,0.513-0.106,0.842-0.449l-0.111,0.518
			c-0.12,0.54-0.335,0.769-0.708,0.769c-0.289,0-0.449-0.16-0.449-0.457h-0.945c-0.013,0.549,0.031,0.777,0.229,1.036
			c0.206,0.281,0.539,0.41,1.044,0.41c0.547,0,0.951-0.151,1.256-0.479c0.285-0.32,0.46-0.769,0.664-1.697l0.693-3.151H324.685z
			 M323.643,119.013c-0.324,0-0.504-0.296-0.449-0.754c0.063-0.51,0.353-0.868,0.702-0.868c0.324,0,0.489,0.274,0.435,0.716
			C324.265,118.655,323.992,119.013,323.643,119.013"/>
		<path id="path543" fill="#BDBCBC" d="M328.213,116.502l-0.054,0.387c-0.242-0.373-0.434-0.486-0.813-0.486
			c-0.811,0-1.516,0.845-1.657,1.994c-0.12,0.982,0.242,1.606,0.923,1.606c0.372,0,0.622-0.123,0.971-0.472l-0.118,0.374h0.992
			l0.747-3.403H328.213z M327.166,119.02c-0.331,0-0.507-0.281-0.454-0.715c0.063-0.518,0.388-0.914,0.749-0.914
			c0.325,0,0.496,0.274,0.443,0.709C327.838,118.633,327.526,119.02,327.166,119.02"/>
		<path id="path545" fill="#BDBCBC" d="M330.928,118.937l1.94-2.435h-2.837l-0.245,0.966h1.173l-1.958,2.436h2.983l0.245-0.968
			H330.928"/>
		<path id="path547" fill="#BDBCBC" d="M334.183,114.477c-0.337,0-0.647,0.328-0.697,0.739c-0.051,0.419,0.172,0.754,0.502,0.754
			c0.325,0,0.625-0.335,0.676-0.761C334.715,114.804,334.496,114.477,334.183,114.477z M333.292,116.502l-0.748,3.403h0.992
			l0.748-3.403H333.292"/>
		<path id="path549" fill="#BDBCBC" d="M334.822,116.502l-0.746,3.403h0.991l0.339-1.537c0.149-0.678,0.317-0.921,0.636-0.921
			c0.229,0,0.337,0.19,0.295,0.54c-0.015,0.123-0.034,0.221-0.076,0.419l-0.334,1.5h0.992l0.42-1.911
			c0.054-0.235,0.081-0.411,0.099-0.555c0.081-0.67-0.174-1.035-0.721-1.035c-0.367,0-0.624,0.129-1.04,0.54l0.137-0.441H334.822"/>
		<path id="path551" fill="#BDBCBC" d="M341.341,117.468l0.209-0.966h-0.674l0.134-0.601c0.084-0.396,0.22-0.571,0.449-0.571
			c0.126,0,0.205,0.046,0.31,0.167l0.239-1.066c-0.22-0.121-0.389-0.167-0.611-0.167c-0.655,0-1.131,0.502-1.329,1.424l-0.177,0.815
			h-0.421l-0.209,0.966h0.415l-0.539,2.436h0.992l0.539-2.436H341.341"/>
		<path id="path553" fill="#BDBCBC" d="M343.75,116.502l-0.392,1.774c-0.109,0.494-0.27,0.685-0.583,0.685
			c-0.259,0-0.384-0.153-0.349-0.441c0.007-0.061,0.035-0.191,0.079-0.396l0.354-1.621h-0.985l-0.376,1.697
			c-0.042,0.19-0.066,0.343-0.081,0.464c-0.105,0.86,0.323,1.34,1.182,1.34c0.488,0,0.908-0.145,1.188-0.411
			c0.251-0.236,0.402-0.586,0.561-1.294l0.388-1.796H343.75z M344.22,114.674c-0.271,0-0.521,0.274-0.561,0.601
			c-0.043,0.342,0.147,0.618,0.417,0.618c0.265,0,0.508-0.267,0.55-0.609C344.666,114.957,344.478,114.674,344.22,114.674z
			 M343.005,114.674c-0.271,0-0.52,0.266-0.561,0.601c-0.043,0.35,0.141,0.618,0.413,0.618c0.27,0,0.514-0.267,0.555-0.609
			C343.452,114.948,343.27,114.674,343.005,114.674"/>
		<path id="path555" fill="#BDBCBC" d="M345.282,116.502l-0.748,3.403h0.992l0.315-1.446c0.156-0.692,0.349-0.936,0.757-0.936
			c0.175,0,0.29,0.045,0.433,0.153l0.25-1.158c-0.083-0.007-0.149-0.015-0.19-0.015c-0.379,0-0.604,0.114-0.954,0.464l0.136-0.464
			H345.282"/>
		<path id="path557" fill="#231F20" d="M312.716,131.816l0.209-0.967h-0.53l0.242-1.088h-0.992l-0.236,1.088h-0.426l-0.209,0.967
			h0.421l-0.533,2.435h0.986l0.538-2.435H312.716"/>
		<path id="path559" fill="#231F20" d="M315.688,132.805c0.025-0.151,0.039-0.22,0.049-0.304c0.135-1.096-0.302-1.751-1.169-1.751
			c-0.938,0-1.679,0.791-1.819,1.941c-0.126,1.035,0.32,1.659,1.191,1.659c0.457,0,0.863-0.159,1.164-0.464
			c0.2-0.205,0.29-0.358,0.468-0.769h-1.083c-0.073,0.244-0.205,0.35-0.423,0.35c-0.324,0-0.444-0.197-0.388-0.662H315.688z
			 M313.832,132.098c0.104-0.35,0.294-0.525,0.558-0.525c0.271,0,0.405,0.183,0.381,0.525H313.832"/>
		<path id="path561" fill="#231F20" d="M317.673,130.75c-0.86,0-1.584,0.807-1.719,1.911c-0.121,0.989,0.322,1.689,1.074,1.689
			c0.229,0,0.371-0.037,0.731-0.182l0.234-1.065c-0.241,0.197-0.381,0.259-0.561,0.259c-0.343,0-0.519-0.281-0.464-0.731
			c0.064-0.517,0.374-0.89,0.746-0.89c0.21,0,0.345,0.084,0.51,0.304l0.231-1.057C318.217,130.827,317.968,130.75,317.673,130.75"/>
		<path id="path563" fill="#231F20" d="M319.413,128.703l-1.221,5.549h0.993l0.354-1.614c0.136-0.624,0.302-0.845,0.621-0.845
			c0.246,0,0.339,0.175,0.294,0.541c-0.015,0.129-0.031,0.212-0.11,0.555l-0.299,1.362h0.992l0.38-1.735
			c0.054-0.236,0.087-0.419,0.105-0.564c0.095-0.776-0.159-1.202-0.724-1.202c-0.319,0-0.561,0.106-0.934,0.404l0.54-2.451H319.413"
			/>
		<path id="path565" fill="#231F20" d="M322.327,130.849l-0.747,3.402h0.992l0.339-1.537c0.149-0.678,0.318-0.921,0.636-0.921
			c0.229,0,0.337,0.191,0.295,0.541c-0.015,0.121-0.034,0.22-0.076,0.419l-0.334,1.499h0.993l0.42-1.91
			c0.054-0.236,0.08-0.411,0.099-0.556c0.081-0.67-0.174-1.035-0.721-1.035c-0.367,0-0.624,0.13-1.04,0.54l0.138-0.441H322.327"/>
		<path id="path567" fill="#231F20" d="M326.847,128.825c-0.336,0-0.647,0.326-0.697,0.738c-0.051,0.419,0.173,0.754,0.503,0.754
			c0.325,0,0.625-0.335,0.678-0.761C327.378,129.152,327.16,128.825,326.847,128.825z M325.956,130.849l-0.748,3.402h0.993
			l0.748-3.402H325.956"/>
		<path id="path569" fill="#231F20" d="M327.96,128.703l-1.22,5.549h0.992l0.351-1.597c0.195,0.426,0.325,0.685,0.517,1.027
			l0.327,0.57h1.209l-1.03-1.849l1.362-1.554h-1.251l-1.009,1.219l0.742-3.365H327.96"/>
		<path id="path571" fill="#231F20" d="M313.416,123.268c-0.86,0-1.585,0.806-1.72,1.91c-0.121,0.99,0.323,1.69,1.075,1.69
			c0.228,0,0.371-0.037,0.731-0.182l0.232-1.066c-0.24,0.199-0.38,0.259-0.56,0.259c-0.344,0-0.519-0.281-0.464-0.73
			c0.063-0.517,0.372-0.891,0.746-0.891c0.21,0,0.344,0.084,0.51,0.305l0.231-1.059C313.96,123.344,313.71,123.268,313.416,123.268"
			/>
		<path id="path573" fill="#231F20" d="M315.992,123.268c-0.961,0-1.734,0.754-1.862,1.811c-0.131,1.074,0.43,1.789,1.392,1.789
			c0.937,0,1.68-0.761,1.815-1.857C317.466,123.953,316.937,123.268,315.992,123.268z M315.588,125.887
			c-0.331,0-0.514-0.283-0.46-0.716c0.064-0.518,0.389-0.914,0.755-0.914c0.331,0,0.501,0.275,0.449,0.709
			C316.267,125.498,315.955,125.887,315.588,125.887"/>
		<path id="path575" fill="#231F20" d="M318.158,123.367l-0.747,3.402h0.992l0.355-1.621c0.124-0.571,0.313-0.837,0.601-0.837
			c0.205,0,0.306,0.153,0.276,0.396c-0.009,0.076-0.026,0.167-0.052,0.289l-0.393,1.774h0.992l0.355-1.621
			c0.135-0.616,0.295-0.837,0.614-0.837c0.204,0,0.31,0.167,0.276,0.441c-0.007,0.061-0.04,0.229-0.067,0.358l-0.366,1.66h0.986
			l0.4-1.789c0.094-0.426,0.118-0.571,0.136-0.724c0.074-0.601-0.21-0.989-0.726-0.989c-0.385,0-0.681,0.16-1.07,0.586
			c-0.121-0.434-0.314-0.586-0.71-0.586c-0.385,0-0.649,0.144-0.994,0.555l0.134-0.456H318.158"/>
		<path id="path577" fill="#231F20" d="M323.363,123.367l-1.159,5.282h0.986l0.542-2.459c0.206,0.472,0.476,0.677,0.885,0.677
			c0.77,0,1.376-0.776,1.52-1.956c0.124-1.013-0.225-1.644-0.905-1.644c-0.349,0-0.613,0.136-1.01,0.532l0.131-0.434H323.363z
			 M324.377,125.887c-0.324,0-0.5-0.283-0.448-0.716c0.064-0.518,0.383-0.914,0.75-0.914c0.324,0,0.495,0.275,0.442,0.709
			C325.057,125.498,324.745,125.887,324.377,125.887"/>
		<path id="path579" fill="#231F20" d="M328.828,123.367l-0.391,1.774c-0.109,0.495-0.27,0.685-0.582,0.685
			c-0.259,0-0.385-0.152-0.35-0.441c0.007-0.061,0.036-0.191,0.079-0.396l0.355-1.621h-0.986l-0.376,1.697
			c-0.041,0.19-0.066,0.343-0.081,0.464c-0.105,0.86,0.324,1.34,1.184,1.34c0.487,0,0.907-0.145,1.186-0.411
			c0.251-0.236,0.403-0.586,0.561-1.294l0.389-1.796H328.828"/>
		<path id="path581" fill="#231F20" d="M331.848,124.333l0.209-0.966h-0.529l0.241-1.089h-0.992l-0.235,1.089h-0.427l-0.209,0.966
			h0.421l-0.532,2.436h0.986l0.539-2.436H331.848"/>
		<path id="path583" fill="#231F20" d="M334.881,125.323c0.025-0.153,0.039-0.221,0.05-0.305c0.134-1.096-0.304-1.75-1.169-1.75
			c-0.939,0-1.679,0.791-1.82,1.941c-0.126,1.035,0.32,1.659,1.192,1.659c0.458,0,0.861-0.16,1.164-0.464
			c0.199-0.206,0.29-0.359,0.466-0.769h-1.082c-0.071,0.243-0.205,0.35-0.421,0.35c-0.325,0-0.445-0.199-0.389-0.662H334.881z
			 M333.026,124.615c0.102-0.351,0.292-0.526,0.558-0.526c0.27,0,0.404,0.184,0.38,0.526H333.026"/>
		<path id="path585" fill="#231F20" d="M335.742,123.367l-0.747,3.402h0.992l0.315-1.446c0.157-0.693,0.349-0.936,0.759-0.936
			c0.174,0,0.289,0.045,0.432,0.153l0.249-1.158c-0.083-0.007-0.148-0.015-0.19-0.015c-0.379,0-0.604,0.114-0.952,0.464l0.135-0.464
			H335.742"/>
		<path id="path587" fill="#231F20" d="M313.571,116.167l-0.748,3.402h0.993l0.355-1.621c0.124-0.57,0.313-0.836,0.601-0.836
			c0.204,0,0.306,0.151,0.276,0.395c-0.01,0.076-0.026,0.168-0.054,0.29l-0.391,1.773h0.992l0.355-1.621
			c0.135-0.616,0.295-0.836,0.613-0.836c0.205,0,0.311,0.168,0.278,0.441c-0.008,0.06-0.04,0.227-0.068,0.357l-0.366,1.659h0.986
			l0.4-1.789c0.094-0.426,0.117-0.57,0.136-0.723c0.074-0.601-0.21-0.99-0.726-0.99c-0.385,0-0.681,0.16-1.07,0.586
			c-0.122-0.434-0.314-0.586-0.71-0.586c-0.385,0-0.65,0.145-0.995,0.556l0.134-0.457H313.571"/>
		<path id="path589" fill="#231F20" d="M320.777,116.167l-0.052,0.389c-0.244-0.373-0.434-0.488-0.813-0.488
			c-0.812,0-1.517,0.845-1.658,1.995c-0.12,0.981,0.243,1.606,0.921,1.606c0.374,0,0.623-0.122,0.973-0.472l-0.118,0.373h0.991
			l0.747-3.402H320.777z M319.73,118.687c-0.331,0-0.506-0.281-0.454-0.715c0.064-0.517,0.389-0.914,0.749-0.914
			c0.325,0,0.496,0.274,0.443,0.708C320.402,118.298,320.091,118.687,319.73,118.687"/>
		<path id="path591" fill="#231F20" d="M324.398,116.167l-0.079,0.495c-0.224-0.434-0.456-0.594-0.841-0.594
			c-0.794,0-1.45,0.793-1.586,1.911c-0.128,1.035,0.25,1.69,0.977,1.69c0.313,0,0.513-0.107,0.843-0.45l-0.111,0.517
			c-0.12,0.541-0.335,0.769-0.707,0.769c-0.289,0-0.45-0.159-0.449-0.456H321.5c-0.012,0.549,0.031,0.776,0.229,1.035
			c0.206,0.283,0.539,0.411,1.044,0.411c0.548,0,0.951-0.153,1.255-0.48c0.286-0.319,0.461-0.769,0.665-1.696l0.693-3.153H324.398z
			 M323.357,118.679c-0.325,0-0.505-0.296-0.449-0.754c0.063-0.51,0.353-0.868,0.701-0.868c0.325,0,0.49,0.274,0.436,0.715
			C323.978,118.322,323.706,118.679,323.357,118.679"/>
		<path id="path593" fill="#231F20" d="M327.927,116.167l-0.054,0.389c-0.242-0.373-0.434-0.488-0.813-0.488
			c-0.811,0-1.516,0.845-1.658,1.995c-0.12,0.981,0.242,1.606,0.923,1.606c0.373,0,0.623-0.122,0.971-0.472l-0.118,0.373h0.992
			l0.748-3.402H327.927z M326.878,118.687c-0.33,0-0.506-0.281-0.454-0.715c0.064-0.517,0.389-0.914,0.75-0.914
			c0.325,0,0.495,0.274,0.442,0.708C327.552,118.298,327.24,118.687,326.878,118.687"/>
		<path id="path595" fill="#231F20" d="M330.642,118.603l1.94-2.436h-2.838l-0.245,0.967h1.173l-1.958,2.435h2.983l0.244-0.966
			H330.642"/>
		<path id="path597" fill="#231F20" d="M333.897,114.143c-0.337,0-0.648,0.328-0.698,0.738c-0.052,0.419,0.171,0.754,0.503,0.754
			c0.325,0,0.624-0.335,0.676-0.761C334.428,114.47,334.21,114.143,333.897,114.143z M333.006,116.167l-0.747,3.402h0.992
			l0.746-3.402H333.006"/>
		<path id="path599" fill="#231F20" d="M334.536,116.167l-0.747,3.402h0.992l0.339-1.537c0.149-0.678,0.318-0.92,0.636-0.92
			c0.229,0,0.337,0.19,0.295,0.54c-0.015,0.121-0.034,0.22-0.076,0.419l-0.334,1.499h0.992l0.42-1.91
			c0.053-0.236,0.08-0.411,0.099-0.556c0.081-0.669-0.174-1.035-0.721-1.035c-0.367,0-0.624,0.13-1.041,0.541l0.139-0.442H334.536"
			/>
		<path id="path601" fill="#231F20" d="M341.055,117.134l0.208-0.967h-0.673l0.134-0.601c0.084-0.395,0.22-0.57,0.449-0.57
			c0.126,0,0.205,0.045,0.31,0.167l0.239-1.066c-0.22-0.121-0.389-0.168-0.611-0.168c-0.655,0-1.131,0.503-1.329,1.424l-0.177,0.814
			h-0.421l-0.209,0.967h0.415l-0.539,2.435h0.992l0.539-2.435H341.055"/>
		<path id="path603" fill="#231F20" d="M343.462,116.167l-0.391,1.774c-0.109,0.495-0.27,0.685-0.582,0.685
			c-0.259,0-0.385-0.151-0.349-0.441c0.007-0.061,0.035-0.19,0.077-0.395l0.355-1.622h-0.986l-0.375,1.697
			c-0.042,0.191-0.066,0.342-0.081,0.465c-0.105,0.86,0.323,1.34,1.183,1.34c0.488,0,0.907-0.145,1.187-0.411
			c0.251-0.236,0.402-0.586,0.561-1.294l0.388-1.798H343.462z M343.932,114.34c-0.27,0-0.52,0.274-0.56,0.601
			c-0.042,0.342,0.148,0.616,0.418,0.616c0.265,0,0.507-0.266,0.55-0.609C344.38,114.622,344.191,114.34,343.932,114.34z
			 M342.718,114.34c-0.271,0-0.52,0.266-0.561,0.601c-0.042,0.35,0.141,0.616,0.411,0.616c0.271,0,0.514-0.266,0.556-0.609
			C343.166,114.614,342.982,114.34,342.718,114.34"/>
		<path id="path605" fill="#231F20" d="M344.996,116.167l-0.747,3.402h0.991l0.316-1.446c0.156-0.692,0.349-0.936,0.758-0.936
			c0.175,0,0.289,0.046,0.432,0.152l0.25-1.156c-0.084-0.007-0.149-0.016-0.19-0.016c-0.379,0-0.604,0.115-0.954,0.465l0.135-0.465
			H344.996"/>
		<path id="path607" fill="#BDBCBC" d="M300.252,110.688l5.821-0.649l0.65,0.649l-1.474,5.993l5.358-0.65l0.65,0.65l-1.434,5.835
			h-6.013l-0.676,2.751c0,0-0.208,0.694-0.134,1.134c0.056,0.336,0.129,0.534,0.326,0.812c0.234,0.33,0.439,0.486,0.809,0.649
			c0.351,0.155,0.97,0.161,0.97,0.161l4.045-0.649l0.649,0.649l-1.592,6.485h-4.893c-4.288,0.042-6.975-2.905-6.975-6.539
			c0-0.794,0.228-2.062,0.709-4.253l0.309-1.246L300.252,110.688"/>
		<path id="path609" fill="#BDBCBC" d="M293.976,110.688l4.855-0.649l0.649,0.649l-2.906,11.827h-2.77l-0.649-0.65l2.282-5.99
			h-2.735l-0.65-0.65L293.976,110.688"/>
		<path id="path611" fill="#BDBCBC" d="M290.257,116.68l3.56-0.65l0.65,0.65l-1.434,5.835h-4.077
			c-1.634,0.004-3.331,1.703-3.331,3.215c0,0.863,0.43,2.285,1.84,2.293l6.195-0.649l0.649,0.649l-1.594,6.485h-6.677
			c-4.296,0.096-6.955-2.926-6.955-6.56C279.082,122.802,283.943,116.672,290.257,116.68"/>
		<g id="g613" transform="matrix(1.25,0,0,-1.25,-139.01411,884.07281)">
			<g>
				<defs>
					<path id="SVGID_1_" d="M343.417,613.914l1.701-4.148l0.52-0.52h-3.262c-1.307-0.003-2.665-1.362-2.665-2.572
						c0-0.69,0.344-1.828,1.472-1.834c0,0-6.706-2.847-6.706,0.06C334.477,609.017,338.366,613.921,343.417,613.914"/>
				</defs>
				<clipPath id="SVGID_2_">
					<use xlink:href="#SVGID_1_"  overflow="visible"/>
				</clipPath>
				<g id="g615" clip-path="url(#SVGID_2_)">
					<path id="path621" fill="#4F4C4C" d="M336.501,603.308l-2.475,8.097l-1.521-0.465l2.475-8.097L336.501,603.308"/>
					<path id="path623" fill="#4F4C4C" d="M336.567,603.328l-2.479,8.109l-0.149-0.045l2.479-8.11L336.567,603.328"/>
					<path id="path625" fill="#5B5859" d="M336.705,603.37l-2.48,8.109l-0.148-0.045l2.479-8.11L336.705,603.37"/>
					<path id="path627" fill="#676565" d="M336.842,603.412l-2.479,8.109l-0.149-0.045l2.48-8.109L336.842,603.412"/>
					<path id="path629" fill="#747172" d="M336.98,603.454l-2.479,8.11l-0.149-0.046l2.479-8.109L336.98,603.454"/>
					<path id="path631" fill="#807E7E" d="M337.118,603.496l-2.48,8.11l-0.148-0.046l2.479-8.109L337.118,603.496"/>
					<path id="path633" fill="#8C8A8B" d="M337.255,603.538l-2.479,8.11l-0.148-0.046l2.479-8.109L337.255,603.538"/>
					<path id="path635" fill="#989697" d="M337.393,603.58l-2.479,8.11l-0.149-0.046l2.48-8.109L337.393,603.58"/>
					<path id="path637" fill="#A5A3A3" d="M337.531,603.622l-2.479,8.11l-0.149-0.045l2.479-8.11L337.531,603.622"/>
					<path id="path639" fill="#B1AFB0" d="M337.669,603.665l-2.48,8.109l-0.148-0.045l2.479-8.11L337.669,603.665"/>
					<path id="path641" fill="#BDBCBC" d="M337.806,603.707l-2.479,8.109l-0.149-0.045l2.48-8.11L337.806,603.707"/>
					<path id="path643" fill="#BDBCBC" d="M339.373,604.186l-2.475,8.094l-1.629-0.498l2.474-8.094L339.373,604.186"/>
					<path id="path645" fill="#BDBCBC" d="M341.722,604.904l-2.471,8.085l-2.425-0.741l2.472-8.085L341.722,604.904"/>
					<path id="path647" fill="#BDBCBC" d="M341.794,604.926l-2.48,8.109l-0.148-0.045l2.479-8.11L341.794,604.926"/>
					<path id="path649" fill="#B2B1B1" d="M341.937,604.969l-2.479,8.11l-0.149-0.045l2.479-8.11L341.937,604.969"/>
					<path id="path651" fill="#A7A6A6" d="M342.08,605.013l-2.479,8.11l-0.149-0.046l2.479-8.109L342.08,605.013"/>
					<path id="path653" fill="#9C9A9B" d="M342.223,605.057l-2.479,8.11l-0.149-0.046l2.479-8.109L342.223,605.057"/>
					<path id="path655" fill="#918F90" d="M342.366,605.101l-2.479,8.109l-0.149-0.045l2.479-8.11L342.366,605.101"/>
					<path id="path657" fill="#868484" d="M342.509,605.144l-2.479,8.11l-0.149-0.046l2.479-8.109L342.509,605.144"/>
					<path id="path659" fill="#7B7979" d="M342.652,605.188l-2.479,8.11l-0.149-0.046l2.479-8.109L342.652,605.188"/>
					<path id="path661" fill="#706D6E" d="M342.795,605.232l-2.479,8.109l-0.149-0.045l2.479-8.11L342.795,605.232"/>
					<path id="path663" fill="#656263" d="M342.938,605.276l-2.479,8.109l-0.149-0.045l2.48-8.11L342.938,605.276"/>
					<path id="path665" fill="#5A5758" d="M343.081,605.319l-2.479,8.11l-0.149-0.046l2.48-8.109L343.081,605.319"/>
					<path id="path667" fill="#4F4C4C" d="M343.224,605.363l-2.479,8.11l-0.149-0.046l2.48-8.109L343.224,605.363"/>
					<path id="path669" fill="#4F4C4C" d="M346.552,606.381l-2.474,8.093l-3.394-1.037l2.475-8.094L346.552,606.381"/>
				</g>
			</g>
		</g>
		<path id="path671" fill="#4F4C4C" d="M293.976,110.688l1.948,11.177l0.65,0.65h-2.77l-0.649-0.65l2.282-5.99h-2.735l-0.65-0.65
			L293.976,110.688"/>
		<path id="path673" fill="#231F20" d="M293.327,110.039h5.504l-2.908,11.826h-2.769l1.633-6.64h-2.735L293.327,110.039"/>
		<path id="path675" fill="#4F4C4C" d="M297.916,120.128l11.258,1.737l0.65,0.65h-6.013l-0.65-0.65
			c-0.036,0.44-2.3,3.543-1.949,5.965c0.489,3.378,6.345,6.027,6.345,6.027l0.65,0.65h-4.893c-4.288,0.042-6.975-2.905-6.975-6.539
			c0-0.794,0.228-2.062,0.709-4.253l0.309-1.246L297.916,120.128"/>
		<path id="path677" fill="#231F20" d="M299.603,110.039h6.47l-1.472,5.991h6.006l-1.434,5.835h-6.013l-0.675,2.751
			c0,0-0.208,0.695-0.134,1.134c0.056,0.336,0.129,0.534,0.325,0.812c0.234,0.33,0.439,0.488,0.809,0.65
			c0.351,0.154,0.97,0.161,0.97,0.161h4.695l-1.594,6.484h-4.893c-4.288,0.043-6.975-2.905-6.975-6.539
			c0-0.792,0.227-2.061,0.709-4.252l0.31-1.246L299.603,110.039"/>
		<path id="path679" fill="#4F4C4C" d="M287.465,128.023l4.601,5.835l0.649,0.65h-6.677c-4.296,0.096-6.955-2.926-6.955-6.56
			C279.082,122.802,286.055,128.015,287.465,128.023"/>
		<path id="path681" fill="#231F20" d="M289.607,116.03h4.21l-1.434,5.835h-4.076c-1.635,0.004-3.331,1.704-3.331,3.216
			c0,0.862,0.429,2.284,1.84,2.292h6.844l-1.594,6.484h-6.679c-4.296,0.096-6.955-2.926-6.955-6.56
			C278.432,122.153,283.293,116.022,289.607,116.03"/>
	</g>
</g>
</svg>
