<?xml version="1.0" encoding="UTF-8" standalone="no"?>
<!-- Created with Inkscape (http://www.inkscape.org/) -->
<svg
   xmlns:dc="http://purl.org/dc/elements/1.1/"
   xmlns:cc="http://web.resource.org/cc/"
   xmlns:rdf="http://www.w3.org/1999/02/22-rdf-syntax-ns#"
   xmlns:svg="http://www.w3.org/2000/svg"
   xmlns="http://www.w3.org/2000/svg"
   xmlns:sodipodi="http://sodipodi.sourceforge.net/DTD/sodipodi-0.dtd"
   xmlns:inkscape="http://www.inkscape.org/namespaces/inkscape"
   width="836.75842"
   height="290.57544"
   id="svg127772"
   sodipodi:version="0.32"
   inkscape:version="0.44"
   version="1.0"
   sodipodi:docbase="C:\Dokumente und Einstellungen\Andreas\Eigene Dateien\Eigene Bilder\sonstiges\Logos\Vektor"
   sodipodi:docname="PCWelt-Logo.svg">
  <defs
     id="defs127774">
    <clipPath
       clip-rule="nonzero"
       id="clp766">
<path
   id="path7617"
   d="M 353.2,269.72 L 381.55,269.72 L 381.55,259.96 L 353.2,259.96 L 353.2,269.72 z " />

</clipPath>
    <clipPath
       clip-rule="nonzero"
       id="clp767">
<path
   id="path7626"
   d="M 353.2,269.72 L 381.55,269.72 L 381.55,259.96 L 353.2,259.96 L 353.2,269.72 z " />

</clipPath>
    <clipPath
       clip-rule="nonzero"
       id="clp768">
<path
   id="path7694"
   d="M 884.27,1291.1 L 1053.9,1291.1 L 1053.9,1266.6 L 884.27,1266.6 L 884.27,1291.1 z " />

</clipPath>
    <clipPath
       clip-rule="nonzero"
       id="clp769">
<path
   id="path7724"
   d="M 884.27,1291.1 L 1053.9,1291.1 L 1053.9,1266.6 L 884.27,1266.6 L 884.27,1291.1 z " />

</clipPath>
  </defs>
  <sodipodi:namedview
     id="base"
     pagecolor="#ffffff"
     bordercolor="#666666"
     borderopacity="1.0"
     inkscape:pageopacity="0.0"
     inkscape:pageshadow="2"
     inkscape:zoom="0.35"
     inkscape:cx="381.7"
     inkscape:cy="409.02307"
     inkscape:document-units="px"
     inkscape:current-layer="layer1"
     inkscape:window-width="904"
     inkscape:window-height="574"
     inkscape:window-x="138"
     inkscape:window-y="138" />
  <metadata
     id="metadata127777">
    <rdf:RDF>
      <cc:Work
         rdf:about="">
        <dc:format>image/svg+xml</dc:format>
        <dc:type
           rdf:resource="http://purl.org/dc/dcmitype/StillImage" />
      </cc:Work>
    </rdf:RDF>
  </metadata>
  <g
     inkscape:label="Ebene 1"
     inkscape:groupmode="layer"
     id="layer1"
     transform="translate(-1094.25,163.4216)">
    <g
       id="g128826">
      <g
         transform="matrix(29.52518,0,0,-29.52704,-9334.324,7800.331)"
         clip-path="url(#clp766)"
         id="g7619"
         style="font-size:3.15269995px;letter-spacing:-0.063054;word-spacing:0;fill:#ec1d24;fill-rule:nonzero;stroke:none;stroke-width:0.058;stroke-linecap:butt;stroke-linejoin:miter;stroke-miterlimit:4;stroke-dasharray:none;font-family:fnt0, &quot;Futura&quot;, Arial">
<path
   style="fill:#005baa;fill-rule:nonzero;stroke:none"
   d="M 353.3,269.62 L 381.55,269.62 L 381.55,259.96 L 353.3,259.96 L 353.3,269.62 z "
   class="ps0325"
   id="path7621" />

</g>
      <g
         transform="matrix(29.52518,0,0,-29.52704,-9334.324,7800.331)"
         clip-path="url(#clp767)"
         id="g7628"
         style="font-size:3.15269995px;letter-spacing:-0.063054;word-spacing:0;fill:#ec1d24;fill-rule:nonzero;stroke:none;stroke-width:0.058;stroke-linecap:butt;stroke-linejoin:miter;stroke-miterlimit:4;stroke-dasharray:none;font-family:fnt0, &quot;Futura&quot;, Arial">
<path
   style="fill:none;stroke:#005ba9;stroke-width:0.18099999"
   d="M 353.3,259.96 L 381.95,259.96 L 381.95,269.62 L 353.3,269.62 L 353.3,259.96 z "
   class="ps0326 ps167"
   id="path7630" />

</g>
      <path
         id="path7633"
         class="ps07 ps166 ps20"
         d="M 1177.2364,-94.609644 L 1194.0668,-94.609644 C 1208.829,-94.609644 1212.3758,-79.255461 1212.3758,-60.948343 C 1212.3758,-46.184649 1205.5818,-31.126202 1195.8402,-31.126202 L 1177.2364,-31.126202 L 1177.2364,-94.609644 z M 1144.4647,94.363968 L 1177.2364,94.363968 L 1177.2364,3.1255872 L 1201.7451,3.1255872 C 1240.4216,3.1255872 1245.737,-37.031582 1245.737,-62.129321 C 1245.737,-102.87698 1233.9272,-128.86094 1203.8133,-128.86094 L 1144.4647,-128.86094 L 1144.4647,94.363968"
         style="font-size:3.15269995px;letter-spacing:-0.063054;word-spacing:0;fill:#231e1f;fill-rule:nonzero;stroke:none;stroke-width:0.058;stroke-linecap:butt;stroke-linejoin:miter;stroke-miterlimit:4;stroke-dasharray:none;font-family:fnt0, &quot;Futura&quot;, Arial" />
      <path
         id="path7635"
         class="ps013 ps133 ps20"
         d="M 1177.2364,-94.609644 L 1194.0668,-94.609644 C 1208.829,-94.609644 1212.3758,-79.255461 1212.3758,-60.948343 C 1212.3758,-46.184649 1205.5818,-31.126202 1195.8402,-31.126202 L 1177.2364,-31.126202 L 1177.2364,-94.609644 z M 1144.4647,94.363968 L 1177.2364,94.363968 L 1177.2364,3.1255872 L 1201.7451,3.1255872 C 1240.4216,3.1255872 1245.737,-37.031582 1245.737,-62.129321 C 1245.737,-102.87698 1233.9272,-128.86094 1203.8133,-128.86094 L 1144.4647,-128.86094 L 1144.4647,94.363968 z "
         style="font-size:3.15269995px;letter-spacing:-0.063054;word-spacing:0;fill:none;stroke:#231e1f;stroke-width:1.86014688;stroke-linecap:butt;stroke-linejoin:miter;stroke-miterlimit:4;stroke-dasharray:none;font-family:fnt0, &quot;Futura&quot;, Arial" />
      <path
         id="path7637"
         class="ps07 ps133 ps20"
         d="M 1264.0412,-17.248242 C 1264.0412,-76.302526 1264.0412,-132.69912 1318.3691,-132.69912 C 1351.7302,-132.69912 1365.3134,-106.41991 1363.8397,-58.291144 L 1331.9523,-58.291144 C 1331.9523,-88.113285 1328.1107,-99.03831 1318.0743,-99.03831 C 1299.7702,-99.03831 1297.4072,-74.53106 1297.4072,-17.248242 C 1297.4072,40.034085 1299.7702,64.83658 1318.0743,64.83658 C 1333.4261,64.83658 1332.8365,36.785906 1333.1313,19.365012 L 1365.9029,19.365012 C 1365.9029,79.009785 1349.0774,98.202637 1318.0743,98.202637 C 1264.0412,98.202637 1264.0412,41.215063 1264.0412,-17.248242"
         style="font-size:3.15269995px;letter-spacing:-0.063054;word-spacing:0;fill:#231e1f;fill-rule:nonzero;stroke:none;stroke-width:0.063;stroke-linecap:butt;stroke-linejoin:miter;stroke-miterlimit:4;stroke-dasharray:none;font-family:fnt0, &quot;Futura&quot;, Arial" />
      <path
         id="path7639"
         class="ps013 ps133 ps20"
         d="M 1264.0412,-17.248242 C 1264.0412,-76.302526 1264.0412,-132.69912 1318.3691,-132.69912 C 1351.7302,-132.69912 1365.3134,-106.41991 1363.8397,-58.291144 L 1331.9523,-58.291144 C 1331.9523,-88.113285 1328.1107,-99.03831 1318.0743,-99.03831 C 1299.7702,-99.03831 1297.4072,-74.53106 1297.4072,-17.248242 C 1297.4072,40.034085 1299.7702,64.83658 1318.0743,64.83658 C 1333.4261,64.83658 1332.8365,36.785906 1333.1313,19.365012 L 1365.9029,19.365012 C 1365.9029,79.009785 1349.0774,98.202637 1318.0743,98.202637 C 1264.0412,98.202637 1264.0412,41.215063 1264.0412,-17.248242 z "
         style="font-size:3.15269995px;letter-spacing:-0.063054;word-spacing:0;fill:none;stroke:#231e1f;stroke-width:1.86014688;stroke-linecap:butt;stroke-linejoin:miter;stroke-miterlimit:4;stroke-dasharray:none;font-family:fnt0, &quot;Futura&quot;, Arial" />
      <path
         id="path7641"
         class="ps07 ps133 ps20"
         d="M 1404.2896,-128.86094 L 1437.9455,-128.86094 L 1458.6126,27.928082 L 1458.9074,27.928082 L 1484.0056,-128.86094 L 1522.6821,-128.86094 L 1546.3017,27.928082 L 1546.5964,27.928082 L 1566.3793,-128.86094 L 1598.8562,-128.86094 L 1563.7216,94.363968 L 1527.408,94.363968 L 1502.6045,-68.920434 L 1502.3098,-68.920434 L 1474.8535,94.363968 L 1439.1294,94.363968 L 1404.2896,-128.86094"
         style="font-size:3.15269995px;letter-spacing:-0.063054;word-spacing:0;fill:#231e1f;fill-rule:nonzero;stroke:none;stroke-width:0.063;stroke-linecap:butt;stroke-linejoin:miter;stroke-miterlimit:4;stroke-dasharray:none;font-family:fnt0, &quot;Futura&quot;, Arial" />
      <path
         id="path7643"
         class="ps013 ps133 ps20"
         d="M 1404.2896,-128.86094 L 1437.9455,-128.86094 L 1458.6126,27.928082 L 1458.9074,27.928082 L 1484.0056,-128.86094 L 1522.6821,-128.86094 L 1546.3017,27.928082 L 1546.5964,27.928082 L 1566.3793,-128.86094 L 1598.8562,-128.86094 L 1563.7216,94.363968 L 1527.408,94.363968 L 1502.6045,-68.920434 L 1502.3098,-68.920434 L 1474.8535,94.363968 L 1439.1294,94.363968 L 1404.2896,-128.86094 z "
         style="font-size:3.15269995px;letter-spacing:-0.063054;word-spacing:0;fill:none;stroke:#231e1f;stroke-width:1.86014688;stroke-linecap:butt;stroke-linejoin:miter;stroke-miterlimit:4;stroke-dasharray:none;font-family:fnt0, &quot;Futura&quot;, Arial" />
      <path
         id="path7645"
         class="ps07 ps133 ps20"
         d="M 1607.4188,94.363968 L 1607.4188,-128.86094 L 1693.6341,-128.86094 L 1693.6341,-94.609644 L 1640.4901,-94.609644 L 1640.4901,-39.393537 L 1689.5026,-39.393537 L 1689.5026,-5.1422386 L 1640.4901,-5.1422386 L 1640.4901,60.11267 L 1695.4075,60.11267 L 1695.4075,94.363968 L 1607.4188,94.363968"
         style="font-size:3.15269995px;letter-spacing:-0.063054;word-spacing:0;fill:#231e1f;fill-rule:nonzero;stroke:none;stroke-width:0.063;stroke-linecap:butt;stroke-linejoin:miter;stroke-miterlimit:4;stroke-dasharray:none;font-family:fnt0, &quot;Futura&quot;, Arial" />
      <path
         id="path7647"
         class="ps013 ps133 ps20"
         d="M 1607.4188,94.363968 L 1607.4188,-128.86094 L 1693.6341,-128.86094 L 1693.6341,-94.609644 L 1640.4901,-94.609644 L 1640.4901,-39.393537 L 1689.5026,-39.393537 L 1689.5026,-5.1422386 L 1640.4901,-5.1422386 L 1640.4901,60.11267 L 1695.4075,60.11267 L 1695.4075,94.363968 L 1607.4188,94.363968 z "
         style="font-size:3.15269995px;letter-spacing:-0.063054;word-spacing:0;fill:none;stroke:#231e1f;stroke-width:1.86014688;stroke-linecap:butt;stroke-linejoin:miter;stroke-miterlimit:4;stroke-dasharray:none;font-family:fnt0, &quot;Futura&quot;, Arial" />
      <path
         id="path7649"
         class="ps07 ps133 ps20"
         d="M 1717.2536,94.363968 L 1717.2536,-128.86094 L 1750.0252,-128.86094 L 1750.0252,57.159734 L 1799.3325,57.159734 L 1799.3325,94.363968 L 1717.2536,94.363968"
         style="font-size:3.15269995px;letter-spacing:-0.063054;word-spacing:0;fill:#231e1f;fill-rule:nonzero;stroke:none;stroke-width:0.063;stroke-linecap:butt;stroke-linejoin:miter;stroke-miterlimit:4;stroke-dasharray:none;font-family:fnt0, &quot;Futura&quot;, Arial" />
      <path
         id="path7651"
         class="ps013 ps133 ps20"
         d="M 1717.2536,94.363968 L 1717.2536,-128.86094 L 1750.0252,-128.86094 L 1750.0252,57.159734 L 1799.3325,57.159734 L 1799.3325,94.363968 L 1717.2536,94.363968 z "
         style="font-size:3.15269995px;letter-spacing:-0.063054;word-spacing:0;fill:none;stroke:#231e1f;stroke-width:1.86014688;stroke-linecap:butt;stroke-linejoin:miter;stroke-miterlimit:4;stroke-dasharray:none;font-family:fnt0, &quot;Futura&quot;, Arial" />
      <path
         id="path7653"
         class="ps07 ps133 ps20"
         d="M 1895.2894,-128.86094 L 1895.2894,-91.656709 L 1858.6811,-91.656709 L 1858.6811,94.363968 L 1825.6098,94.363968 L 1825.6098,-91.656709 L 1789.0014,-91.656709 L 1789.0014,-128.86094 L 1895.2894,-128.86094"
         style="font-size:3.15269995px;letter-spacing:-0.063054;word-spacing:0;fill:#231e1f;fill-rule:nonzero;stroke:none;stroke-width:0.063;stroke-linecap:butt;stroke-linejoin:miter;stroke-miterlimit:4;stroke-dasharray:none;font-family:fnt0, &quot;Futura&quot;, Arial" />
      <path
         id="path7655"
         class="ps013 ps133 ps20"
         d="M 1895.2894,-128.86094 L 1895.2894,-91.656709 L 1858.6811,-91.656709 L 1858.6811,94.363968 L 1825.6098,94.363968 L 1825.6098,-91.656709 L 1789.0014,-91.656709 L 1789.0014,-128.86094 L 1895.2894,-128.86094 z "
         style="font-size:3.15269995px;letter-spacing:-0.063054;word-spacing:0;fill:none;stroke:#231e1f;stroke-width:1.86014688;stroke-linecap:butt;stroke-linejoin:miter;stroke-miterlimit:4;stroke-dasharray:none;font-family:fnt0, &quot;Futura&quot;, Arial" />
      <path
         id="path7657"
         class="ps062 ps133 ps20"
         d="M 1400.448,-11.342862 L 1356.1613,-11.342862 C 1356.7509,-9.5713959 1357.3404,-8.0951739 1358.2295,-6.3232162 L 1398.6795,-6.3232162 C 1399.5637,-8.0951739 1400.1533,-9.5713959 1400.448,-11.342862"
         style="font-size:3.15269995px;letter-spacing:-0.063054;word-spacing:0;fill:#ec1d24;fill-rule:nonzero;stroke:none;stroke-width:0.063;stroke-linecap:butt;stroke-linejoin:miter;stroke-miterlimit:4;stroke-dasharray:none;font-family:fnt0, &quot;Futura&quot;, Arial" />
      <path
         id="path7659"
         class="ps0327 ps168 ps20"
         d="M 1400.448,-11.342862 L 1356.1613,-11.342862 C 1356.7509,-9.5713959 1357.3404,-8.0951739 1358.2295,-6.3232162 L 1398.6795,-6.3232162 C 1399.5637,-8.0951739 1400.1533,-9.5713959 1400.448,-11.342862 z "
         style="font-size:3.15269995px;letter-spacing:-0.063054;word-spacing:0;fill:none;stroke:#ec1d24;stroke-width:0.94483662;stroke-linecap:butt;stroke-linejoin:miter;stroke-miterlimit:4;stroke-dasharray:none;font-family:fnt0, &quot;Futura&quot;, Arial" />
      <path
         id="path7661"
         class="ps062 ps168 ps20"
         d="M 1401.0375,-20.201177 L 1355.8666,-20.201177 C 1355.5718,-19.315444 1355.5718,-18.133975 1355.5718,-16.952997 C 1355.5718,-16.362508 1355.5718,-15.77202 1355.5718,-15.181531 L 1401.0375,-15.181531 C 1401.3372,-15.77202 1401.3372,-16.362508 1401.3372,-16.952997 C 1401.3372,-18.133975 1401.0375,-19.315444 1401.0375,-20.201177"
         style="font-size:3.15269995px;letter-spacing:-0.063054;word-spacing:0;fill:#ec1d24;fill-rule:nonzero;stroke:none;stroke-width:0.032;stroke-linecap:butt;stroke-linejoin:miter;stroke-miterlimit:4;stroke-dasharray:none;font-family:fnt0, &quot;Futura&quot;, Arial" />
      <path
         id="path7663"
         class="ps0327 ps168 ps20"
         d="M 1401.0375,-20.201177 L 1355.8666,-20.201177 C 1355.5718,-19.315444 1355.5718,-18.133975 1355.5718,-16.952997 C 1355.5718,-16.362508 1355.5718,-15.77202 1355.5718,-15.181531 L 1401.0375,-15.181531 C 1401.3372,-15.77202 1401.3372,-16.362508 1401.3372,-16.952997 C 1401.3372,-18.133975 1401.0375,-19.315444 1401.0375,-20.201177 z "
         style="font-size:3.15269995px;letter-spacing:-0.063054;word-spacing:0;fill:none;stroke:#ec1d24;stroke-width:0.94483662;stroke-linecap:butt;stroke-linejoin:miter;stroke-miterlimit:4;stroke-dasharray:none;font-family:fnt0, &quot;Futura&quot;, Arial" />
      <path
         id="path7665"
         class="ps062 ps168 ps20"
         d="M 1360.5925,-2.4850389 C 1365.0187,2.5346072 1371.2183,5.7827869 1378.3071,5.7827869 C 1385.6858,5.7827869 1391.8854,2.5346072 1396.0218,-2.4850389 L 1360.5925,-2.4850389"
         style="font-size:3.15269995px;letter-spacing:-0.063054;word-spacing:0;fill:#ec1d24;fill-rule:nonzero;stroke:none;stroke-width:0.032;stroke-linecap:butt;stroke-linejoin:miter;stroke-miterlimit:4;stroke-dasharray:none;font-family:fnt0, &quot;Futura&quot;, Arial" />
      <path
         id="path7667"
         class="ps0327 ps168 ps20"
         d="M 1360.5925,-2.4850389 C 1365.0187,2.5346072 1371.2183,5.7827869 1378.3071,5.7827869 C 1385.6858,5.7827869 1391.8854,2.5346072 1396.0218,-2.4850389 L 1360.5925,-2.4850389 z "
         style="font-size:3.15269995px;letter-spacing:-0.063054;word-spacing:0;fill:none;stroke:#ec1d24;stroke-width:0.94483662;stroke-linecap:butt;stroke-linejoin:miter;stroke-miterlimit:4;stroke-dasharray:none;font-family:fnt0, &quot;Futura&quot;, Arial" />
      <path
         id="path7669"
         class="ps062 ps168 ps20"
         d="M 1394.8379,-32.897669 C 1390.7064,-37.031582 1384.8015,-39.688781 1378.3071,-39.688781 C 1372.1075,-39.688781 1366.1977,-37.031582 1362.0662,-32.897669 L 1394.8379,-32.897669"
         style="font-size:3.15269995px;letter-spacing:-0.063054;word-spacing:0;fill:#ec1d24;fill-rule:nonzero;stroke:none;stroke-width:0.032;stroke-linecap:butt;stroke-linejoin:miter;stroke-miterlimit:4;stroke-dasharray:none;font-family:fnt0, &quot;Futura&quot;, Arial" />
      <path
         id="path7671"
         class="ps0327 ps168 ps20"
         d="M 1394.8379,-32.897669 C 1390.7064,-37.031582 1384.8015,-39.688781 1378.3071,-39.688781 C 1372.1075,-39.688781 1366.1977,-37.031582 1362.0662,-32.897669 L 1394.8379,-32.897669 z "
         style="font-size:3.15269995px;letter-spacing:-0.063054;word-spacing:0;fill:none;stroke:#ec1d24;stroke-width:0.94483662;stroke-linecap:butt;stroke-linejoin:miter;stroke-miterlimit:4;stroke-dasharray:none;font-family:fnt0, &quot;Futura&quot;, Arial" />
      <path
         id="path7673"
         class="ps062 ps168 ps20"
         d="M 1356.7509,-24.039354 L 1400.1533,-24.039354 C 1399.5637,-25.811312 1398.6795,-27.582778 1397.7903,-29.059492 L 1359.1138,-29.059492 C 1358.2295,-27.582778 1357.3404,-25.811312 1356.7509,-24.039354"
         style="font-size:3.15269995px;letter-spacing:-0.063054;word-spacing:0;fill:#ec1d24;fill-rule:nonzero;stroke:none;stroke-width:0.032;stroke-linecap:butt;stroke-linejoin:miter;stroke-miterlimit:4;stroke-dasharray:none;font-family:fnt0, &quot;Futura&quot;, Arial" />
      <path
         id="path7675"
         class="ps0327 ps168 ps20"
         d="M 1356.7509,-24.039354 L 1400.1533,-24.039354 C 1399.5637,-25.811312 1398.6795,-27.582778 1397.7903,-29.059492 L 1359.1138,-29.059492 C 1358.2295,-27.582778 1357.3404,-25.811312 1356.7509,-24.039354 z "
         style="font-size:3.15269995px;letter-spacing:-0.063054;word-spacing:0;fill:none;stroke:#ec1d24;stroke-width:0.94483662;stroke-linecap:butt;stroke-linejoin:miter;stroke-miterlimit:4;stroke-dasharray:none;font-family:fnt0, &quot;Futura&quot;, Arial" />
      <path
         id="path7677"
         class="ps02 ps168 ps20"
         d="M 1176.0573,-96.085866 L 1192.8878,-96.085866 C 1207.65,-96.085866 1211.1919,-80.731684 1211.1919,-62.424565 C 1211.1919,-47.661363 1204.4028,-32.602424 1194.3615,-32.602424 L 1176.0573,-32.602424 L 1176.0573,-96.085866 z M 1143.2857,92.887746 L 1176.0573,92.887746 L 1176.0573,1.648874 L 1200.5612,1.648874 C 1239.2426,1.648874 1244.558,-38.507804 1244.558,-63.901279 C 1244.558,-104.3532 1232.7482,-130.33716 1202.6293,-130.33716 L 1143.2857,-130.33716 L 1143.2857,92.887746"
         style="font-size:3.15269995px;letter-spacing:-0.063054;word-spacing:0;fill:white;fill-rule:nonzero;stroke:none;stroke-width:0.032;stroke-linecap:butt;stroke-linejoin:miter;stroke-miterlimit:4;stroke-dasharray:none;font-family:fnt0, &quot;Futura&quot;, Arial" />
      <path
         id="path7679"
         class="ps02 ps168 ps20"
         d="M 1262.8622,-18.724464 C 1262.8622,-77.778748 1262.8622,-134.17534 1317.1901,-134.17534 C 1350.5512,-134.17534 1364.1344,-107.89662 1362.6557,-59.767366 L 1330.7684,-59.767366 C 1330.7684,-89.589507 1326.9317,-100.81027 1317.1901,-100.81027 C 1298.5862,-100.81027 1296.2233,-76.007282 1296.2233,-18.724464 C 1296.2233,38.262619 1298.5862,63.065114 1317.1901,63.065114 C 1332.247,63.065114 1331.6575,35.309684 1331.9523,17.593546 L 1364.7239,17.593546 C 1364.7239,77.238319 1347.8935,96.726415 1317.1901,96.726415 C 1262.8622,96.726415 1262.8622,39.738841 1262.8622,-18.724464"
         style="font-size:3.15269995px;letter-spacing:-0.063054;word-spacing:0;fill:white;fill-rule:nonzero;stroke:none;stroke-width:0.032;stroke-linecap:butt;stroke-linejoin:miter;stroke-miterlimit:4;stroke-dasharray:none;font-family:fnt0, &quot;Futura&quot;, Arial" />
      <path
         id="path7681"
         class="ps02 ps168 ps20"
         d="M 1403.1057,-130.63241 L 1436.7665,-130.63241 L 1457.4336,26.45186 L 1457.7284,26.45186 L 1482.8266,-130.63241 L 1521.5031,-130.63241 L 1545.1227,26.45186 L 1545.7122,26.45186 L 1565.2003,-130.63241 L 1597.3824,-130.63241 L 1562.5426,92.887746 L 1526.229,92.887746 L 1501.4255,-70.397147 L 1501.1308,-70.397147 L 1473.6696,92.887746 L 1437.9455,92.887746 L 1403.1057,-130.63241"
         style="font-size:3.15269995px;letter-spacing:-0.063054;word-spacing:0;fill:white;fill-rule:nonzero;stroke:none;stroke-width:0.032;stroke-linecap:butt;stroke-linejoin:miter;stroke-miterlimit:4;stroke-dasharray:none;font-family:fnt0, &quot;Futura&quot;, Arial" />
      <path
         id="path7683"
         class="ps02 ps168 ps20"
         d="M 1606.2397,92.887746 L 1606.2397,-130.33716 L 1692.455,-130.33716 L 1692.455,-96.085866 L 1639.3061,-96.085866 L 1639.3061,-41.165495 L 1688.3187,-41.165495 L 1688.3187,-6.6189518 L 1639.3061,-6.6189518 L 1639.3061,58.340712 L 1693.9288,58.340712 L 1693.9288,92.887746 L 1606.2397,92.887746"
         style="font-size:3.15269995px;letter-spacing:-0.063054;word-spacing:0;fill:white;fill-rule:nonzero;stroke:none;stroke-width:0.032;stroke-linecap:butt;stroke-linejoin:miter;stroke-miterlimit:4;stroke-dasharray:none;font-family:fnt0, &quot;Futura&quot;, Arial" />
      <path
         id="path7685"
         class="ps02 ps168 ps20"
         d="M 1716.0746,92.887746 L 1716.0746,-130.63241 L 1748.8462,-130.63241 L 1748.8462,55.683512 L 1798.1535,55.683512 L 1798.1535,92.887746 L 1716.0746,92.887746"
         style="font-size:3.15269995px;letter-spacing:-0.063054;word-spacing:0;fill:white;fill-rule:nonzero;stroke:none;stroke-width:0.032;stroke-linecap:butt;stroke-linejoin:miter;stroke-miterlimit:4;stroke-dasharray:none;font-family:fnt0, &quot;Futura&quot;, Arial" />
      <path
         id="path7687"
         class="ps02 ps168 ps20"
         d="M 1894.1104,-130.33716 L 1894.1104,-93.428175 L 1857.4972,-93.428175 L 1857.4972,92.887746 L 1824.4308,92.887746 L 1824.4308,-93.428175 L 1787.8175,-93.428175 L 1787.8175,-130.33716 L 1894.1104,-130.33716"
         style="font-size:3.15269995px;letter-spacing:-0.063054;word-spacing:0;fill:white;fill-rule:nonzero;stroke:none;stroke-width:0.032;stroke-linecap:butt;stroke-linejoin:miter;stroke-miterlimit:4;stroke-dasharray:none;font-family:fnt0, &quot;Futura&quot;, Arial" />
    </g>
  </g>
</svg>
