<?xml version="1.0" encoding="UTF-8" standalone="no"?>
<!-- Created with Inkscape (http://www.inkscape.org/) -->

<svg
   xmlns:dc="http://purl.org/dc/elements/1.1/"
   xmlns:cc="http://creativecommons.org/ns#"
   xmlns:rdf="http://www.w3.org/1999/02/22-rdf-syntax-ns#"
   xmlns:svg="http://www.w3.org/2000/svg"
   xmlns="http://www.w3.org/2000/svg"
   xmlns:sodipodi="http://sodipodi.sourceforge.net/DTD/sodipodi-0.dtd"
   xmlns:inkscape="http://www.inkscape.org/namespaces/inkscape"
   width="1575.275"
   height="500.36456"
   id="svg3623"
   version="1.1"
   inkscape:version="0.48.4 r9939"
   sodipodi:docname="Neues Dokument 3">
  <defs
     id="defs3625">
    <clipPath
       clipPathUnits="userSpaceOnUse"
       id="clipPath262">
      <path
         inkscape:connector-curvature="0"
         d="m 467.129,91.889 77.706,0 0,26.094 -77.706,0 0,-26.094 z"
         id="path264" />
    </clipPath>
    <clipPath
       clipPathUnits="userSpaceOnUse"
       id="clipPath250">
      <path
         inkscape:connector-curvature="0"
         d="m 467.129,93.691 76.477,0 0,24.292 -76.477,0 0,-24.292 z"
         id="path252" />
    </clipPath>
    <clipPath
       clipPathUnits="userSpaceOnUse"
       id="clipPath238">
      <path
         inkscape:connector-curvature="0"
         d="m 467.129,91.889 77.706,0 0,26.094 -77.706,0 0,-26.094 z"
         id="path240" />
    </clipPath>
  </defs>
  <sodipodi:namedview
     id="base"
     pagecolor="#ffffff"
     bordercolor="#666666"
     borderopacity="1.0"
     inkscape:pageopacity="0.0"
     inkscape:pageshadow="2"
     inkscape:zoom="0.98395514"
     inkscape:cx="787.63753"
     inkscape:cy="250.58805"
     inkscape:document-units="px"
     inkscape:current-layer="layer1"
     showgrid="false"
     fit-margin-top="0"
     fit-margin-left="0"
     fit-margin-right="0"
     fit-margin-bottom="0"
     inkscape:window-width="1680"
     inkscape:window-height="990"
     inkscape:window-x="-4"
     inkscape:window-y="-4"
     inkscape:window-maximized="1" />
  <metadata
     id="metadata3628">
    <rdf:RDF>
      <cc:Work
         rdf:about="">
        <dc:format>image/svg+xml</dc:format>
        <dc:type
           rdf:resource="http://purl.org/dc/dcmitype/StillImage" />
        <dc:title></dc:title>
      </cc:Work>
    </rdf:RDF>
  </metadata>
  <g
     inkscape:label="Ebene 1"
     inkscape:groupmode="layer"
     id="layer1"
     transform="translate(-309.3443,72.466323)">
    <g
       transform="matrix(20.597916,0,0,-20.597916,-9312.5396,2357.7376)"
       id="g234">
      <g
         id="g236"
         clip-path="url(#clipPath238)">
        <g
           id="g242"
           transform="translate(472.3638,102.0227)">
          <path
             inkscape:connector-curvature="0"
             d="m 0,0 c -1.944,0 -2.587,1.902 -2.587,5.175 0,3.804 1.147,5.175 2.587,5.175 2.098,0 2.35,-1.93 2.35,-3.749 L 0.727,6.545 c 0,1.651 -0.209,2.266 -0.657,2.266 -0.378,0 -0.755,-0.252 -0.755,-3.636 0,-3.273 0.196,-3.637 0.755,-3.637 0.602,0 0.741,0.924 0.769,2.364 L 2.378,3.832 C 2.378,2.098 2.126,0 0,0 m 2.909,5.175 c 0,3.93 1.049,5.175 2.658,5.175 1.577,0 2.616,-1.199 2.655,-4.953 l 0.645,0.645 0,4.112 2.42,0 0.232,-1.46 7.238,7.238 -24.196,0 0,-24.196 9.192,9.192 C 3.217,1.71 2.909,3.049 2.909,5.175"
             style="fill:#e30010;fill-opacity:1;fill-rule:nonzero;stroke:none"
             id="path244" />
        </g>
      </g>
    </g>
    <g
       transform="matrix(20.597916,0,0,-20.597916,-9312.5396,2357.7376)"
       id="g246">
      <g
         id="g248"
         clip-path="url(#clipPath250)">
        <g
           id="g254"
           transform="translate(472.3638,102.0227)">
          <path
             inkscape:connector-curvature="0"
             d="m 0,0 c -1.944,0 -2.587,1.902 -2.587,5.175 0,3.804 1.147,5.175 2.587,5.175 2.098,0 2.35,-1.93 2.35,-3.749 L 0.727,6.545 c 0,1.651 -0.209,2.266 -0.657,2.266 -0.378,0 -0.755,-0.252 -0.755,-3.636 0,-3.273 0.196,-3.637 0.755,-3.637 0.602,0 0.741,0.924 0.769,2.364 L 2.378,3.832 C 2.378,2.098 2.126,0 0,0 z m 2.909,5.175 c 0,3.93 1.049,5.175 2.658,5.175 1.577,0 2.616,-1.199 2.655,-4.953 l 0.645,0.645 0,4.112 2.42,0 0.232,-1.46 7.238,7.238 -24.196,0 0,-24.196 9.192,9.192 C 3.217,1.71 2.909,3.049 2.909,5.175 z"
             style="fill:none;stroke:#e30010;stroke-width:0.0033984;stroke-linecap:butt;stroke-linejoin:miter;stroke-miterlimit:4;stroke-opacity:1;stroke-dasharray:none"
             id="path256" />
        </g>
      </g>
    </g>
    <g
       transform="matrix(20.597916,0,0,-20.597916,-9312.5396,2357.7376)"
       id="g258">
      <g
         id="g260"
         clip-path="url(#clipPath262)">
        <g
           id="g266"
           transform="translate(478.6019,108.2463)">
          <path
             inkscape:connector-curvature="0"
             d="M 0,0 C 0,2.154 -0.252,2.588 -0.671,2.588 -1.091,2.588 -1.343,2.154 -1.343,0 l 0,-2.098 c 0,-0.924 0.047,-1.53 0.133,-1.922 l 1.198,1.198 C -0.004,-2.605 0,-2.365 0,-2.098 L 0,0 z"
             style="fill:#e30010;fill-opacity:1;fill-rule:nonzero;stroke:none"
             id="path268" />
        </g>
        <g
           id="g270"
           transform="translate(478.6019,108.2463)">
          <path
             inkscape:connector-curvature="0"
             d="M 0,0 C 0,2.154 -0.252,2.588 -0.671,2.588 -1.091,2.588 -1.343,2.154 -1.343,0 l 0,-2.098 c 0,-0.924 0.047,-1.53 0.133,-1.922 l 1.198,1.198 C -0.004,-2.605 0,-2.365 0,-2.098 L 0,0 z"
             style="fill:none;stroke:#e30010;stroke-width:0.0033984;stroke-linecap:butt;stroke-linejoin:miter;stroke-miterlimit:4;stroke-opacity:1;stroke-dasharray:none"
             id="path272" />
        </g>
        <g
           id="g274"
           transform="translate(482.5738,109.4075)">
          <path
             inkscape:connector-curvature="0"
             d="M 0,0 0.04,0.04 0.028,0.112 0,0.112 0,0 z"
             style="fill:#e30010;fill-opacity:1;fill-rule:nonzero;stroke:none"
             id="path276" />
        </g>
        <g
           id="g278"
           transform="translate(482.5738,109.4075)">
          <path
             inkscape:connector-curvature="0"
             d="M 0,0 0.04,0.04 0.028,0.112 0,0.112 0,0 z"
             style="fill:none;stroke:#e30010;stroke-width:0.0033984;stroke-linecap:butt;stroke-linejoin:miter;stroke-miterlimit:4;stroke-opacity:1;stroke-dasharray:none"
             id="path280" />
        </g>
        <g
           id="g282"
           transform="translate(539.3964,112.1765)">
          <path
             inkscape:connector-curvature="0"
             d="m 0,0 4.112,0 0,-1.539 -2.294,0 0,-2.545 1.692,0 0,-1.622 -1.692,0 0,-2.714 2.392,0 0,-1.538 -4.21,0 L 0,0 z m -5.657,0 1.819,0 0,-4 1.146,0 0,4 1.818,0 0,-9.958 -1.818,0 0,4.224 -1.146,0 0,-4.224 -1.819,0 0,9.958 z m -2.377,-3.608 c 0,1.65 -0.21,2.265 -0.658,2.265 -0.377,0 -0.755,-0.251 -0.755,-3.636 0,-3.273 0.196,-3.636 0.755,-3.636 0.602,0 0.741,0.923 0.769,2.363 l 1.539,-0.07 c 0,-1.734 -0.252,-3.832 -2.378,-3.832 -1.944,0 -2.587,1.902 -2.587,5.175 0,3.804 1.146,5.175 2.587,5.175 2.098,0 2.35,-1.93 2.35,-3.748 l -1.622,-0.056 z m -7.288,-2.42 c 0,-2.154 0.251,-2.587 0.672,-2.587 0.419,0 0.671,0.433 0.671,2.587 l 0,2.098 c 0,2.154 -0.252,2.587 -0.671,2.587 -0.421,0 -0.672,-0.433 -0.672,-2.587 l 0,-2.098 z m 0.672,6.224 c 1.608,0 2.657,-1.245 2.657,-5.175 0,-3.93 -1.049,-5.175 -2.657,-5.175 -1.609,0 -2.658,1.245 -2.658,5.175 0,3.93 1.049,5.175 2.658,5.175 M -25.182,0 l 1.65,0 0.643,-5.846 0.028,0 0.868,5.846 1.636,0 0.797,-5.846 0.028,0 0.713,5.846 1.301,0 -1.301,-9.958 -1.65,0 -0.867,6.308 -0.028,0 -0.895,-6.308 -1.595,0 L -25.182,0 z m -3.38,-4.224 0.364,0 c 0.672,0 0.923,0.672 0.923,1.385 0,1.077 -0.391,1.384 -1.007,1.384 l -0.28,0 0,-2.769 z M -30.38,0 l 2.042,0 c 1.734,0 2.882,-0.727 2.882,-2.825 0,-0.839 -0.252,-1.958 -1.064,-2.434 l 1.077,-4.699 -1.832,0 -0.853,4.28 -0.434,0 0,-4.28 -1.818,0 0,9.958 z m -4.783,0 4.112,0 0,-1.539 -2.294,0 0,-2.545 1.692,0 0,-1.622 -1.692,0 0,-2.714 2.392,0 0,-1.538 -4.21,0 0,9.958 z m -3.692,-1.539 -1.567,0 0,1.539 4.951,0 0,-1.539 -1.566,0 0,-8.419 -1.818,0 0,8.419 z M -45.317,0 l 1.818,0 0,-7.706 c 0,-0.448 0.099,-0.909 0.63,-0.909 0.503,0 0.671,0.433 0.671,0.909 l 0,7.706 1.539,0 0,-7.469 c 0,-1.958 -0.868,-2.685 -2.322,-2.685 -1.399,0 -2.336,0.727 -2.336,2.685 l 0,7.469 z m -3.632,-4.518 0.154,0 c 0.742,0 1.147,0.294 1.147,1.497 0,1.441 -0.56,1.482 -1.161,1.482 l -0.14,0 0,-2.979 z M -50.781,0 l 1.818,0 c 2.056,0 3.133,-0.825 3.133,-2.979 0,-1.79 -0.699,-2.993 -2.405,-2.993 l -0.728,0 0,-3.986 -1.818,0 0,9.958 z m -7.384,0 2.419,0 0.812,-5.105 0.027,0 0.853,5.105 2.364,0 0,-9.958 -1.622,0 0,7.301 -0.028,0 -1.231,-7.301 -1.007,0 -1.217,7.301 -0.028,0 0,-7.301 -1.342,0 0,9.958 z m -3.972,-6.028 c 0,-2.154 0.251,-2.587 0.671,-2.587 0.42,0 0.671,0.433 0.671,2.587 l 0,2.098 c 0,2.154 -0.251,2.587 -0.671,2.587 -0.42,0 -0.671,-0.433 -0.671,-2.587 l 0,-2.098 z m 0.671,6.224 c 1.608,0 2.657,-1.245 2.657,-5.175 0,-3.93 -1.049,-5.175 -2.657,-5.175 -1.608,0 -2.658,1.245 -2.658,5.175 0,3.93 1.05,5.175 2.658,5.175 m -4.839,-3.804 c 0,1.65 -0.21,2.265 -0.657,2.265 -0.378,0 -0.756,-0.251 -0.756,-3.636 0,-3.273 0.196,-3.636 0.756,-3.636 0.601,0 0.741,0.923 0.769,2.363 l 1.538,-0.07 c 0,-1.734 -0.252,-3.832 -2.378,-3.832 -1.944,0 -2.587,1.902 -2.587,5.175 0,3.804 1.147,5.175 2.587,5.175 2.099,0 2.35,-1.93 2.35,-3.748 l -1.622,-0.056 z"
             style="fill:#000000;fill-opacity:1;fill-rule:nonzero;stroke:none"
             id="path284" />
        </g>
      </g>
    </g>
  </g>
</svg>
